<svg width="141" height="56" viewBox="0 0 141 56" fill="none" xmlns="http://www.w3.org/2000/svg">
<path d="M5.54063 49.4227V53.2686C5.54063 54.9024 4.38181 55.6938 2.91263 55.6938C1.44344 55.6938 0.284912 54.9024 0.284912 53.2686V49.4227H1.58615V52.7585C1.58615 53.7963 1.63662 54.741 2.91263 54.741C4.18892 54.741 4.23968 53.7963 4.23968 52.7585V49.4227H5.54063Z" fill="white"/>
<path d="M10.782 55.566L8.38904 50.4605L8.37219 50.4772V55.566H7.15479V49.4227H9.08572L11.3947 54.2557L11.4115 54.2384V49.4227H12.6289V55.566H10.782Z" fill="white"/>
<path d="M15.3768 55.566H14.0759V49.4227H15.3768V55.566Z" fill="white"/>
<path d="M16.4021 49.4227H17.8205L19.399 54.2638H19.4159L21.0025 49.4227H22.2876L20.0541 55.566H18.6347L16.4021 49.4227Z" fill="white"/>
<path d="M23.2795 49.4227H27.3434V50.4433H24.581V51.8818H27.1673V52.9024H24.581V54.5449H27.4362V55.566H23.2795V49.4227Z" fill="white"/>
<path d="M30.1498 52.0686H31.241C31.8118 52.0601 32.1483 51.7709 32.1483 51.2263C32.1483 50.6817 31.8118 50.452 31.241 50.4433H30.1498V52.0686ZM30.1498 55.566H28.8479V49.4227H31.426C32.4673 49.4312 33.5334 49.772 33.5334 51.0217C33.5334 51.8217 33.0214 52.3493 32.2736 52.5116V52.5288C33.2729 52.6386 33.2729 53.2602 33.3826 54.1118C33.4405 54.5026 33.4913 55.226 33.735 55.566H32.2991C32.1904 55.0215 32.1309 54.4684 32.072 53.9156C32.0389 53.5756 31.9545 53.107 31.5261 53.09H30.1498V55.566Z" fill="white"/>
<path d="M38.1774 51.1755C38.1272 50.5542 37.8003 50.248 37.17 50.248C36.6913 50.248 36.205 50.5034 36.205 51.0395C36.205 51.7034 36.7923 51.7793 37.313 51.9072C38.2369 52.1456 39.5964 52.4094 39.5964 53.6431C39.5964 55.1662 38.2868 55.6938 36.9852 55.6938C35.6001 55.6938 34.6182 55.1493 34.6595 53.6007H35.9859C35.9358 54.2808 36.3224 54.741 37.0026 54.741C37.5233 54.741 38.2113 54.5793 38.2113 53.9238C38.2113 53.2001 37.3464 53.1493 36.8257 53.0133C35.9781 52.8008 34.819 52.4094 34.819 51.3203C34.819 49.9159 36.0953 49.2949 37.3376 49.2949C38.5138 49.2949 39.429 49.941 39.429 51.1755H38.1774Z" fill="white"/>
<path d="M42.2092 55.566H40.9082V49.4227H42.2092V55.566Z" fill="white"/>
<path d="M43.2512 49.4227H48.163V50.4433H46.3578V55.566H45.0563V50.4433H43.2512V49.4227Z" fill="white"/>
<path d="M50.8431 53.5579L48.8025 49.4227H50.3225L51.5741 52.2396L52.8495 49.4227H54.1846L52.1441 53.5579V55.566H50.8431V53.5579Z" fill="white"/>
<path d="M58.0498 55.566V49.4227H59.3508V51.8471H61.6429V49.4227H62.9606V55.566H61.6597V52.8688H59.3508V55.566H58.0498Z" fill="white"/>
<path d="M64.4407 49.4227H68.5045V50.4433H65.7425V51.8818H68.3284V52.9024H65.7425V54.5449H68.5967V55.566H64.4407V49.4227Z" fill="white"/>
<path d="M73.3843 53.2432L72.5533 50.6228H72.5358L71.6459 53.2432H73.3843ZM69.614 55.566L71.8054 49.4227H73.3509L75.4586 55.566H74.1477L73.7111 54.2638H71.3103L70.8563 55.566H69.614Z" fill="white"/>
<path d="M76.5679 55.566V49.4227H77.8696V54.5449H80.4976V55.566H76.5679Z" fill="white"/>
<path d="M80.416 49.4227H85.3281V50.4433H83.5229V55.566H82.2212V50.4433H80.416V49.4227Z" fill="white"/>
<path d="M86.4382 55.566V49.4227H87.74V51.8471H90.0315V49.4227H91.3496V55.566H90.0486V52.8688H87.74V55.566H86.4382Z" fill="white"/>
<path d="M99.2788 55.566L96.8855 50.4605L96.8684 50.4772V55.566H95.6514V49.4227H97.5821L99.8907 54.2557L99.9078 54.2384V49.4227H101.125V55.566H99.2788Z" fill="white"/>
<path d="M102.537 49.4227H106.601V50.4433H103.839V51.8818H106.425V52.9024H103.839V54.5449H106.694V55.566H102.537V49.4227Z" fill="white"/>
<path d="M107.711 49.4227H112.623V50.4433H110.818V55.566H109.517V50.4433H107.711V49.4227Z" fill="white"/>
<path d="M116.705 49.4227H118.174L119.232 54.0432H119.249L120.223 49.4227H121.466L119.921 55.566H118.476L117.385 50.8863H117.368L116.193 55.566H114.715L113.238 49.4227H114.581L115.513 54.0432H115.529L116.705 49.4227Z" fill="white"/>
<path d="M123.709 52.4949C123.709 53.5494 123.953 54.741 125.238 54.741C126.523 54.741 126.766 53.5494 126.766 52.4949C126.766 51.4393 126.523 50.248 125.238 50.248C123.953 50.248 123.709 51.4393 123.709 52.4949ZM122.324 52.4949C122.324 50.6817 123.231 49.2949 125.238 49.2949C127.245 49.2949 128.151 50.6817 128.151 52.4949C128.151 54.307 127.245 55.6938 125.238 55.6938C123.231 55.6938 122.324 54.307 122.324 52.4949Z" fill="white"/>
<path d="M130.731 52.0686H131.823C132.394 52.0601 132.729 51.7709 132.729 51.2263C132.729 50.6817 132.394 50.452 131.823 50.4433H130.731V52.0686ZM130.731 55.566H129.429V49.4227H132.007C133.048 49.4312 134.115 49.772 134.115 51.0217C134.115 51.8217 133.602 52.3493 132.855 52.5116V52.5288C133.854 52.6386 133.854 53.2602 133.963 54.1118C134.023 54.5026 134.073 55.226 134.315 55.566H132.881C132.771 55.0215 132.712 54.4684 132.653 53.9156C132.62 53.5756 132.536 53.107 132.108 53.09H130.731V55.566Z" fill="white"/>
<path d="M136.812 52.0773H136.828L138.844 49.4227H140.364L138.138 52.171L140.557 55.566H138.936L136.828 52.4348H136.812V55.566H135.51V49.4227H136.812V52.0773Z" fill="white"/>
<path d="M20.043 15.32L20.009 21.7901C19.1765 21.7901 18.1788 21.7901 17.5246 21.7901C17.2288 19.0723 14.9619 16.7142 12.3875 15.9272C10.5854 15.6414 8.30628 15.5348 7.2026 17.2153C6.89803 17.9924 7.04307 18.6422 7.46368 19.2066C8.03071 19.8415 8.5964 20.2238 9.10692 20.4963C13.6667 23.2288 20.4847 24.1197 22.0656 30.6634C22.4012 33.4402 21.6906 35.7537 19.484 37.5068C14.1706 41.5311 6.10615 40.1394 0.627372 36.9571L0.122076 36.6025V28.3998C1.08423 28.3998 1.36762 28.3998 2.77474 28.3998C2.77474 32.4659 5.4332 35.1513 8.5964 36.6189C10.1047 37.2622 12.6471 37.1267 13.8663 36.3104C14.7115 35.7399 14.8958 35.28 14.6391 34.3846C13.3883 32.3818 11.3317 31.3903 9.19595 30.2354C5.72268 28.357 0.801993 26.5782 0.0771155 22.5094C-0.326077 19.6485 0.859134 17.0892 3.45988 15.3919C7.90893 12.3163 15.5217 12.3511 20.043 15.32Z" fill="white"/>
<path d="M27.2435 16.1001C27.2435 17.597 27.052 18.119 26.4661 19.009C25.5364 21.071 23.7655 21.3035 22.0527 21.3035C22.0527 22.1266 22.0527 22.5789 22.0527 23.8241H23.4305V33.6373C23.3305 35.5592 23.8439 36.8112 24.2592 37.4776C24.9563 38.9486 26.3761 39.8298 27.6423 40.1139C30.8206 40.5569 32.8229 39.6822 34.5943 37.3735C34.5575 36.5535 34.5662 35.5592 34.5662 34.711C33.7241 35.6368 32.7634 36.5552 31.3725 36.378C30.8968 36.2355 30.5009 35.8128 30.3573 35.0425L30.3761 23.8241H33.4848L33.4727 21.3117H30.3631V16.1001H27.2435Z" fill="white"/>
<path d="M137.61 28.1654C137.522 27.5731 137.456 27.1699 137.34 26.6998C136.653 24.7966 134.84 23.0348 132.668 22.8931C131.58 22.9295 130.384 23.0348 129.878 24.0932C129.733 25.1846 130.639 26.0652 131.544 26.6293C134.77 29.096 140.746 29.484 141 34.6649C140.71 36.2845 139.767 37.8017 138.21 38.7879C134.333 41.1843 128.283 40.2326 124.55 38.1875L124.588 32.2675L126.327 32.2407C126.654 34.7803 128.682 37.379 131.252 38.1875C132.595 38.2949 134.26 38.5418 135.022 37.2021C135.313 36.4281 134.875 35.7574 134.479 35.1578C131.5 32.5412 126.363 32.3751 125.023 27.8982C124.588 26.4532 124.914 24.7269 125.783 23.5991C129.008 19.8991 135.275 20.5331 139.369 22.2597L139.35 28.1685L137.61 28.1654Z" fill="white"/>
<path d="M69.8302 32.2223C69.8302 33.3767 69.3031 34.3258 68.4764 35.0511C67.8223 35.5381 67.5612 35.7494 66.6374 35.7056C66.124 35.5169 65.6642 34.9396 65.659 34.426C65.6575 34.1452 65.6575 33.9551 65.6575 33.9551L65.6453 21.3256H56.8679V23.6131C57.2818 23.6131 57.4582 23.6131 57.7825 23.6131C58.2617 23.7262 58.6837 23.9419 58.8709 24.419C58.9506 24.5544 59.0449 24.7347 59.0449 25.527C59.0501 26.5124 59.0542 27.7059 59.0542 28.8019C59.0542 29.8535 59.0803 31.0154 59.0638 32.084C59.0638 35.294 59.2987 38.0719 62.182 39.5121C65.6453 40.5569 67.7794 38.9486 69.8687 36.6495L69.8905 39.5745H79.0571V37.3366C77.9975 37.2245 77.7947 37.2245 77.2155 36.7717C76.8955 36.5468 76.3311 35.8368 76.3311 35.1924L76.2918 21.3188H67.6361V23.6016C67.6361 23.6016 68.4271 23.6016 68.5489 23.6016C69.4298 23.8149 69.8122 24.4283 69.8122 25.2401L69.8302 32.2223Z" fill="white"/>
<path d="M100.941 39.5646H93.1302C92.8681 38.9139 92.6891 38.3265 91.9339 37.2246C90.33 34.884 88.5983 32.4893 86.8228 30.2687C86.8228 31.3377 86.8228 32.7066 86.8228 34.1589C86.8317 35.461 86.8176 36.4143 87.9233 37.2421C88.2166 37.4721 89.0112 37.5957 89.2465 37.5957L89.2265 39.5745L80.2332 39.5618L80.2377 17.3711C80.1471 16.7209 79.8003 16.2923 79.4201 16.0141C79.2181 15.7322 78.6241 15.6312 78.2454 15.6484L78.2513 13.3595H86.8228V27.397C88.5953 25.5333 90.679 24.6292 90.679 21.3188H98.323L98.3237 23.5843C95.2146 23.5843 93.4688 24.4929 91.7297 26.5714L99.0106 36.721C99.6262 37.2486 100.106 37.5909 100.941 37.5909V39.5646Z" fill="white"/>
<path d="M117.807 32.7978C117.606 35.902 114.708 39.1184 111.556 39.9991C108.117 40.9511 104.675 39.8933 102.066 37.9548L101.56 37.5329C98.9884 35.0312 97.9748 31.472 98.8443 27.9849C99.7495 24.637 103.19 21.3255 106.775 20.7962C110.036 20.2682 113.259 21.0083 115.469 23.5095C117.097 25.4832 117.899 27.5445 117.704 30.5851L105.362 30.5701C105.334 32.2589 106.087 34.6435 108.079 35.7705C109.673 36.6878 112.1 36.617 113.621 35.5964C114.745 34.8904 115.251 33.7984 115.486 32.7739L117.807 32.7978ZM110.756 28.4942C110.713 26.6726 110.652 25.4564 109.874 24.001C109.407 23.3687 108.695 22.9595 108.046 22.9595C107.394 22.9595 106.684 23.3687 106.217 24.001C105.438 25.4564 105.378 26.6726 105.334 28.4942H110.756Z" fill="white"/>
<path d="M120.94 31.3292L121.811 18.678L124.392 19.5584L123.521 17.053L129.426 15.9991L123.527 14.9997L124.362 12.5603L121.856 13.6732L120.94 7.89359L120.023 13.6732L117.517 12.5603L118.353 14.9997L112.453 15.9991L118.358 17.053L117.487 19.5584L120.068 18.678L120.94 31.3292ZM118.792 20.6035L115.133 21.8501L116.546 18.1145L105.377 15.983L116.504 14.016L115.06 10.2536L118.865 11.7L120.94 0.77507L123.015 11.7L126.818 10.2536L125.375 14.016L136.502 15.983L125.333 18.1145L126.746 21.8501L123.088 20.6035L120.94 47.3882L118.792 20.6035Z" fill="white"/>
<path d="M49.5757 11.327V13.6992C48.9448 13.6992 48.3632 13.8403 47.8707 14.1785C47.464 14.4613 47.1507 15.0268 47.0579 15.8456L47.0753 37.4531C50.2718 37.5491 52.8346 37.0674 54.3566 34.5637C55.0086 33.2596 55.3451 31.9565 55.2369 30.0158H58.1579V39.5756H38.1253C38.5619 38.2644 39.0085 37.1399 39.1042 35.621L39.1005 15.8456C39.0085 15.0268 38.6895 14.4613 38.2834 14.1785C37.7889 13.8403 37.2073 13.6992 36.5769 13.6992V11.327H49.5757Z" fill="white"/>
</svg>
