<svg width="164" height="66" viewBox="0 0 164 66" fill="none" xmlns="http://www.w3.org/2000/svg">
<path d="M6.44436 58.4619V63.0838C6.44436 65.0471 5.09651 65.9983 3.38767 65.9983C1.67881 65.9983 0.331299 65.0471 0.331299 63.0838V58.4619H1.84481V62.4707C1.84481 63.7179 1.90351 64.8532 3.38767 64.8532C4.87216 64.8532 4.9312 63.7179 4.9312 62.4707V58.4619H6.44436Z" fill="black"/>
<path d="M12.5409 65.8447L9.7575 59.7091L9.73789 59.7291V65.8447H8.3219V58.4619H10.5678L13.2534 64.2699L13.273 64.2492V58.4619H14.689V65.8447H12.5409Z" fill="black"/>
<path d="M17.8851 65.8447H16.3719V58.4619H17.8851V65.8447Z" fill="black"/>
<path d="M19.0778 58.4619H20.7275L22.5636 64.2797H22.5832L24.4287 58.4619H25.9233L23.3254 65.8447H21.6746L19.0778 58.4619Z" fill="black"/>
<path d="M27.0771 58.4619H31.8039V59.6884H28.591V61.4171H31.5991V62.6436H28.591V64.6175H31.9119V65.8447H27.0771V58.4619Z" fill="black"/>
<path d="M35.0681 61.6416H36.3373C37.0012 61.6314 37.3926 61.2839 37.3926 60.6294C37.3926 59.975 37.0012 59.6989 36.3373 59.6884H35.0681V61.6416ZM35.0681 65.8447H33.5538V58.4619H36.5525C37.7637 58.4721 39.0036 58.8817 39.0036 60.3836C39.0036 61.3449 38.4081 61.979 37.5384 62.174V62.1947C38.7006 62.3266 38.7006 63.0736 38.8282 64.097C38.8957 64.5666 38.9547 65.4361 39.2381 65.8447H37.5681C37.4415 65.1902 37.3724 64.5256 37.3039 63.8613C37.2654 63.4527 37.1672 62.8895 36.6689 62.8691H35.0681V65.8447Z" fill="black"/>
<path d="M44.4051 60.5684C44.3468 59.8217 43.9666 59.4538 43.2334 59.4538C42.6767 59.4538 42.111 59.7607 42.111 60.405C42.111 61.2028 42.7942 61.2941 43.3997 61.4477C44.4743 61.7342 46.0556 62.0512 46.0556 63.5338C46.0556 65.3642 44.5324 65.9983 43.0185 65.9983C41.4075 65.9983 40.2654 65.3438 40.3133 63.4829H41.8562C41.7979 64.3001 42.2476 64.8532 43.0388 64.8532C43.6443 64.8532 44.4446 64.6589 44.4446 63.8712C44.4446 63.0014 43.4386 62.9403 42.8329 62.7769C41.8471 62.5216 40.4989 62.0512 40.4989 60.7423C40.4989 59.0547 41.9834 58.3083 43.4284 58.3083C44.7965 58.3083 45.8609 59.0849 45.8609 60.5684H44.4051Z" fill="black"/>
<path d="M49.0948 65.8447H47.5815V58.4619H49.0948V65.8447Z" fill="black"/>
<path d="M50.3066 58.4619H56.0196V59.6884H53.92V65.8447H52.4062V59.6884H50.3066V58.4619Z" fill="black"/>
<path d="M59.137 63.4313L56.7635 58.4619H58.5315L59.9872 61.8471L61.4707 58.4619H63.0237L60.6502 63.4313V65.8447H59.137V63.4313Z" fill="black"/>
<path d="M67.5193 65.8447V58.4619H69.0325V61.3754H71.6985V58.4619H73.2312V65.8447H71.718V62.6033H69.0325V65.8447H67.5193Z" fill="black"/>
<path d="M74.9526 58.4619H79.6793V59.6884H76.4668V61.4171H79.4746V62.6436H76.4668V64.6175H79.7866V65.8447H74.9526V58.4619Z" fill="black"/>
<path d="M85.3551 63.0533L84.3886 59.9041H84.3683L83.3332 63.0533H85.3551ZM80.9698 65.8447L83.5187 58.4619H85.3163L87.7678 65.8447H86.2431L85.7353 64.2797H82.9428L82.4148 65.8447H80.9698Z" fill="black"/>
<path d="M89.0582 65.8447V58.4619H90.5723V64.6175H93.629V65.8447H89.0582Z" fill="black"/>
<path d="M93.5339 58.4619H99.2473V59.6884H97.1477V65.8447H95.6336V59.6884H93.5339V58.4619Z" fill="black"/>
<path d="M100.539 65.8447V58.4619H102.053V61.3754H104.718V58.4619H106.251V65.8447H104.738V62.6033H102.053V65.8447H100.539Z" fill="black"/>
<path d="M115.474 65.8447L112.69 59.7091L112.67 59.7291V65.8447H111.255V58.4619H113.5L116.185 64.2699L116.205 64.2492V58.4619H117.621V65.8447H115.474Z" fill="black"/>
<path d="M119.264 58.4619H123.991V59.6884H120.778V61.4171H123.786V62.6436H120.778V64.6175H124.099V65.8447H119.264V58.4619Z" fill="black"/>
<path d="M125.282 58.4619H130.994V59.6884H128.896V65.8447H127.382V59.6884H125.282V58.4619Z" fill="black"/>
<path d="M135.742 58.4619H137.452L138.682 64.0146H138.701L139.834 58.4619H141.28L139.483 65.8447H137.803L136.533 60.2208H136.514L135.147 65.8447H133.428L131.71 58.4619H133.272L134.356 64.0146H134.375L135.742 58.4619Z" fill="black"/>
<path d="M143.889 62.154C143.889 63.4212 144.173 64.8532 145.668 64.8532C147.162 64.8532 147.444 63.4212 147.444 62.154C147.444 60.8855 147.162 59.4538 145.668 59.4538C144.173 59.4538 143.889 60.8855 143.889 62.154ZM142.279 62.154C142.279 59.975 143.333 58.3083 145.668 58.3083C148.002 58.3083 149.056 59.975 149.056 62.154C149.056 64.3317 148.002 65.9983 145.668 65.9983C143.333 65.9983 142.279 64.3317 142.279 62.154Z" fill="black"/>
<path d="M152.057 61.6416H153.326C153.991 61.6314 154.381 61.2839 154.381 60.6294C154.381 59.975 153.991 59.6989 153.326 59.6884H152.057V61.6416ZM152.057 65.8447H150.543V58.4619H153.541C154.751 58.4721 155.993 58.8817 155.993 60.3836C155.993 61.3449 155.396 61.979 154.527 62.174V62.1947C155.689 62.3266 155.689 63.0736 155.816 64.097C155.885 64.5666 155.943 65.4361 156.226 65.8447H154.557C154.429 65.1902 154.361 64.5256 154.293 63.8613C154.254 63.4527 154.156 62.8895 153.659 62.8691H152.057V65.8447Z" fill="black"/>
<path d="M159.13 61.6521H159.149L161.493 58.4619H163.261L160.672 61.7647L163.485 65.8447H161.6L159.149 62.0818H159.13V65.8447H157.615V58.4619H159.13V61.6521Z" fill="black"/>
<path d="M23.3125 17.4791L23.273 25.2546C22.3047 25.2546 21.1442 25.2546 20.3834 25.2546C20.0393 21.9884 17.4025 19.1546 14.4083 18.2088C12.3121 17.8653 9.66125 17.7372 8.37754 19.7568C8.02328 20.6906 8.19198 21.4716 8.68121 22.1498C9.34073 22.9128 9.9987 23.3722 10.5925 23.6998C15.8962 26.9835 23.8263 28.0541 25.6651 35.918C26.0555 39.255 25.2289 42.0352 22.6624 44.142C16.4822 48.9782 7.10223 47.3057 0.729713 43.4814L0.14199 43.0552V33.1977C1.2611 33.1977 1.59072 33.1977 3.22737 33.1977C3.22737 38.0841 6.3195 41.3112 9.9987 43.0749C11.7531 43.848 14.7102 43.6853 16.1282 42.7042C17.1114 42.0186 17.3257 41.4659 17.0271 40.3899C15.5723 37.983 13.1802 36.7915 10.6961 35.4036C6.6562 33.1463 0.93282 31.0086 0.0896951 26.1189C-0.379269 22.6808 0.999282 19.6052 4.02427 17.5656C9.19908 13.8695 18.0537 13.9112 23.3125 17.4791Z" fill="black"/>
<path d="M31.6875 18.4167C31.6875 20.2157 31.4648 20.8429 30.7833 21.9125C29.702 24.3905 27.6422 24.6699 25.65 24.6699C25.65 25.6591 25.65 26.2026 25.65 27.6991H27.2525V39.492C27.1362 41.8016 27.7334 43.3062 28.2164 44.1071C29.0272 45.8748 30.6787 46.9338 32.1514 47.2752C35.8481 47.8076 38.1771 46.7565 40.2375 43.982C40.1946 42.9966 40.2047 41.8016 40.2047 40.7823C39.2253 41.8949 38.1079 42.9986 36.4901 42.7857C35.9368 42.6144 35.4763 42.1064 35.3093 41.1807L35.3312 27.6991H38.947L38.9328 24.6798H35.3161V18.4167H31.6875Z" fill="black"/>
<path d="M160.058 32.9161C159.955 32.2043 159.879 31.7198 159.744 31.1548C158.945 28.8677 156.836 26.7504 154.309 26.5801C153.045 26.6239 151.653 26.7504 151.065 28.0223C150.896 29.3339 151.95 30.3922 153.002 31.0701C156.754 34.0344 163.705 34.5006 164.001 40.7268C163.664 42.6732 162.567 44.4965 160.756 45.6816C156.246 48.5615 149.209 47.4177 144.867 44.96L144.912 37.8458L146.934 37.8136C147.314 40.8655 149.674 43.9885 152.663 44.96C154.225 45.0892 156.162 45.3859 157.048 43.7759C157.386 42.8457 156.877 42.0397 156.416 41.3191C152.951 38.1747 146.976 37.975 145.417 32.595C144.912 30.8584 145.291 28.7839 146.302 27.4285C150.053 22.982 157.343 23.7439 162.104 25.8189L162.082 32.9198L160.058 32.9161Z" fill="black"/>
<path d="M81.2212 37.7914C81.2212 39.1787 80.6082 40.3194 79.6466 41.1909C78.8859 41.7762 78.5822 42.0302 77.5077 41.9776C76.9105 41.7507 76.3757 41.057 76.3697 40.4398C76.3679 40.1024 76.3679 39.8739 76.3679 39.8739L76.3538 24.6964H66.1445V27.4454C66.626 27.4454 66.8311 27.4454 67.2084 27.4454C67.7657 27.5814 68.2565 27.8405 68.4742 28.4139C68.567 28.5766 68.6767 28.7933 68.6767 29.7455C68.6827 30.9296 68.6874 32.364 68.6874 33.681C68.6874 34.9448 68.7178 36.3411 68.6986 37.6253C68.6986 41.4829 68.9719 44.8212 72.3255 46.5519C76.3538 47.8076 78.836 45.8748 81.2661 43.1118L81.2914 46.6269H91.9534V43.9375C90.7209 43.8029 90.4851 43.8029 89.8114 43.2587C89.4391 42.9885 88.7827 42.1352 88.7827 41.3608L88.7369 24.6882H78.6693V27.4315C78.6693 27.4315 79.5893 27.4315 79.731 27.4315C80.7556 27.6879 81.2003 28.425 81.2003 29.4006L81.2212 37.7914Z" fill="black"/>
<path d="M117.408 46.6151H108.322C108.017 45.8331 107.809 45.1271 106.931 43.8029C105.065 40.9902 103.051 38.1123 100.986 35.4437C100.986 36.7284 100.986 38.3734 100.986 40.1187C100.996 41.6836 100.98 42.8291 102.266 43.824C102.607 44.1003 103.531 44.2489 103.805 44.2489L103.782 46.627L93.3214 46.6117L93.3266 19.944C93.2212 19.1628 92.8179 18.6477 92.3757 18.3134C92.1407 17.9745 91.4498 17.8532 91.0093 17.8738L91.0162 15.1232H100.986V31.9927C103.048 29.753 105.471 28.6665 105.471 24.6883H114.362L114.363 27.4108C110.747 27.4108 108.716 28.5027 106.693 31.0005L115.162 43.1977C115.878 43.8317 116.436 44.2431 117.408 44.2431V46.6151Z" fill="black"/>
<path d="M137.024 38.4833C136.791 42.2137 133.42 46.0789 129.754 47.1373C125.754 48.2813 121.75 47.0101 118.716 44.6806L118.127 44.1736C115.136 41.1672 113.957 36.8899 114.968 32.6993C116.021 28.6761 120.023 24.6964 124.193 24.0603C127.985 23.4258 131.735 24.3153 134.305 27.321C136.199 29.6929 137.131 32.1701 136.905 35.8241L122.549 35.8061C122.517 37.8356 123.393 40.7013 125.709 42.0556C127.564 43.158 130.386 43.0729 132.156 41.8464C133.463 40.998 134.051 39.6857 134.325 38.4544L137.024 38.4833ZM128.823 33.3114C128.773 31.1222 128.702 29.6607 127.797 27.9117C127.254 27.1518 126.426 26.6601 125.671 26.6601C124.913 26.6601 124.087 27.1518 123.544 27.9117C122.638 29.6607 122.568 31.1222 122.517 33.3114H128.823Z" fill="black"/>
<path d="M140.669 36.7183L141.682 21.5147L144.683 22.5727L143.671 19.5619L150.539 18.2954L143.678 17.0943L144.649 14.1628L141.734 15.5002L140.669 8.55462L139.602 15.5002L136.687 14.1628L137.66 17.0943L130.797 18.2954L137.665 19.5619L136.653 22.5727L139.654 21.5147L140.669 36.7183ZM138.17 23.8287L133.915 25.3268L135.558 20.8376L122.567 18.2761L135.509 15.9122L133.829 11.3907L138.255 13.129L140.669 -3.8147e-05L143.082 13.129L147.506 11.3907L145.827 15.9122L158.769 18.2761L145.778 20.8376L147.421 25.3268L143.167 23.8287L140.669 56.0172L138.17 23.8287Z" fill="black"/>
<path d="M57.6627 12.6807V15.5315C56.9289 15.5315 56.2524 15.701 55.6795 16.1075C55.2066 16.4473 54.8422 17.1269 54.7342 18.111L54.7544 44.0776C58.4724 44.193 61.4532 43.6142 63.2235 40.6053C63.9819 39.0381 64.3732 37.4721 64.2474 35.1399H67.6448V46.6283H44.3445C44.8522 45.0526 45.3717 43.7013 45.4831 41.8759L45.4788 18.111C45.3717 17.1269 45.0007 16.4473 44.5283 16.1075C43.9531 15.701 43.2767 15.5315 42.5435 15.5315V12.6807H57.6627Z" fill="black"/>
</svg>
